<svg width="25" height="25" viewBox="0 0 25 25" fill="none" xmlns="http://www.w3.org/2000/svg">
<path d="M16.5108 7.31606C16.1331 6.91315 15.5002 6.89273 15.0973 7.27046C14.6944 7.64819 14.674 8.28103 15.0517 8.68394L16.5108 7.31606ZM19.2705 13.1839C19.6482 13.5869 20.281 13.6073 20.6839 13.2295C21.0869 12.8518 21.1073 12.219 20.7295 11.8161L19.2705 13.1839ZM20.7295 13.1839C21.1073 12.781 21.0869 12.1482 20.6839 11.7705C20.281 11.3927 19.6482 11.4131 19.2705 11.8161L20.7295 13.1839ZM15.0517 16.3161C14.674 16.719 14.6944 17.3518 15.0973 17.7295C15.5002 18.1073 16.1331 18.0869 16.5108 17.6839L15.0517 16.3161ZM20 13.5C20.5523 13.5 21 13.0523 21 12.5C21 11.9477 20.5523 11.5 20 11.5V13.5ZM5 11.5C4.44772 11.5 4 11.9477 4 12.5C4 13.0523 4.44772 13.5 5 13.5V11.5ZM15.0517 8.68394L19.2705 13.1839L20.7295 11.8161L16.5108 7.31606L15.0517 8.68394ZM19.2705 11.8161L15.0517 16.3161L16.5108 17.6839L20.7295 13.1839L19.2705 11.8161ZM20 11.5H5V13.5H20V11.5Z" fill="white"/>
</svg>
