<svg width="48" height="48" viewBox="0 0 48 48" fill="none" xmlns="http://www.w3.org/2000/svg">
<path d="M5.52381 11.0476C8.57453 11.0476 11.0476 8.57453 11.0476 5.52381C11.0476 2.47309 8.57453 0 5.52381 0C2.47309 0 0 2.47309 0 5.52381C0 8.57453 2.47309 11.0476 5.52381 11.0476Z" fill="#56D6FF"/>
<path d="M24.0004 11.0476C27.0511 11.0476 29.5242 8.57453 29.5242 5.52381C29.5242 2.47309 27.0511 0 24.0004 0C20.9497 0 18.4766 2.47309 18.4766 5.52381C18.4766 8.57453 20.9497 11.0476 24.0004 11.0476Z" fill="#2D9DFF"/>
<path d="M42.4769 11.0476C45.5277 11.0476 48.0007 8.57453 48.0007 5.52381C48.0007 2.47309 45.5277 0 42.4769 0C39.4262 0 36.9531 2.47309 36.9531 5.52381C36.9531 8.57453 39.4262 11.0476 42.4769 11.0476Z" fill="#0657F4"/>
<path d="M5.52381 48.0007C8.57453 48.0007 11.0476 45.5276 11.0476 42.4769C11.0476 39.4262 8.57453 36.9531 5.52381 36.9531C2.47309 36.9531 0 39.4262 0 42.4769C0 45.5276 2.47309 48.0007 5.52381 48.0007Z" fill="#56D6FF"/>
<path d="M24.0004 48.0007C27.0511 48.0007 29.5242 45.5276 29.5242 42.4769C29.5242 39.4262 27.0511 36.9531 24.0004 36.9531C20.9497 36.9531 18.4766 39.4262 18.4766 42.4769C18.4766 45.5276 20.9497 48.0007 24.0004 48.0007Z" fill="#2D9DFF"/>
<path d="M42.4769 48.0007C45.5277 48.0007 48.0007 45.5276 48.0007 42.4769C48.0007 39.4262 45.5277 36.9531 42.4769 36.9531C39.4262 36.9531 36.9531 39.4262 36.9531 42.4769C36.9531 45.5276 39.4262 48.0007 42.4769 48.0007Z" fill="#0657F4"/>
<path d="M24.0004 29.5242C27.0511 29.5242 29.5242 27.0511 29.5242 24.0004C29.5242 20.9497 27.0511 18.4766 24.0004 18.4766C20.9497 18.4766 18.4766 20.9497 18.4766 24.0004C18.4766 27.0511 20.9497 29.5242 24.0004 29.5242Z" fill="#2D9DFF"/>
<path d="M42.4769 29.5242C45.5277 29.5242 48.0007 27.0511 48.0007 24.0004C48.0007 20.9497 45.5277 18.4766 42.4769 18.4766C39.4262 18.4766 36.9531 20.9497 36.9531 24.0004C36.9531 27.0511 39.4262 29.5242 42.4769 29.5242Z" fill="#0657F4"/>
</svg>
