<svg width="20" height="20" viewBox="0 0 20 20" fill="none" xmlns="http://www.w3.org/2000/svg">
<path fill-rule="evenodd" clip-rule="evenodd" d="M12.3425 6.25C11.7874 4.09347 9.8298 2.5 7.5 2.5C4.73858 2.5 2.5 4.73858 2.5 7.5C2.5 9.26232 3.41175 10.8117 4.78929 11.7021C5.34244 12.1982 6.07348 12.5 6.875 12.5H7.5H14.375C16.1009 12.5 17.5 11.1009 17.5 9.375C17.5 7.64911 16.1009 6.25 14.375 6.25H12.3425Z" fill="#639AF0"/>
<path fill-rule="evenodd" clip-rule="evenodd" d="M3.33398 14.5846C3.33398 14.3545 3.52053 14.168 3.75065 14.168H17.084C17.3141 14.168 17.5007 14.3545 17.5007 14.5846C17.5007 14.8148 17.3141 15.0013 17.084 15.0013H3.75065C3.52053 15.0013 3.33398 14.8148 3.33398 14.5846ZM3.33398 16.2526C3.33398 16.0225 3.52053 15.8359 3.75065 15.8359H7.08399C7.3141 15.8359 7.50065 16.0225 7.50065 16.2526C7.50065 16.4827 7.3141 16.6693 7.08398 16.6693H3.75065C3.52053 16.6693 3.33398 16.4827 3.33398 16.2526ZM13.7507 17.5C13.5205 17.5 13.334 17.6865 13.334 17.9167C13.334 18.1468 13.5205 18.3333 13.7507 18.3333H17.084C17.3141 18.3333 17.5007 18.1468 17.5007 17.9167C17.5007 17.6865 17.3141 17.5 17.084 17.5H13.7507ZM9.16797 16.2526C9.16797 16.0225 9.35452 15.8359 9.58463 15.8359H17.0846C17.3148 15.8359 17.5013 16.0225 17.5013 16.2526C17.5013 16.4827 17.3148 16.6693 17.0846 16.6693H9.58463C9.35452 16.6693 9.16797 16.4827 9.16797 16.2526ZM3.75065 17.5C3.52053 17.5 3.33398 17.6865 3.33398 17.9167C3.33398 18.1468 3.52053 18.3333 3.75065 18.3333H11.2506C11.4808 18.3333 11.6673 18.1468 11.6673 17.9167C11.6673 17.6865 11.4808 17.5 11.2507 17.5H3.75065Z" fill="#D6E3EF"/>
</svg>
