<svg width="20" height="20" viewBox="0 0 20 20" fill="none" xmlns="http://www.w3.org/2000/svg">
<path fill-rule="evenodd" clip-rule="evenodd" d="M13.5251 2.6691C13.4134 3.36886 13.4788 4.10654 13.751 4.8157C14.5711 6.95219 16.9592 8.02522 19.0985 7.22589C18.8717 8.64601 17.9151 9.90997 16.4759 10.4624C14.3276 11.2871 11.9175 10.214 11.0928 8.0657C10.2681 5.91736 11.3412 3.50725 13.4895 2.68258C13.5014 2.67803 13.5132 2.67354 13.5251 2.6691Z" fill="#FAD515"/>
<path fill-rule="evenodd" clip-rule="evenodd" d="M12.3425 9.58203C11.7874 7.4255 9.8298 5.83203 7.5 5.83203C4.73858 5.83203 2.5 8.07061 2.5 10.832C2.5 12.5944 3.41175 14.1437 4.78929 15.0342C5.34244 15.5303 6.07348 15.832 6.875 15.832H7.5H14.375C16.1009 15.832 17.5 14.4329 17.5 12.707C17.5 10.9811 16.1009 9.58203 14.375 9.58203H12.3425Z" fill="#639AF0"/>
</svg>
