<svg width="20" height="20" viewBox="0 0 20 20" fill="none" xmlns="http://www.w3.org/2000/svg">
<path opacity="0.7" fill-rule="evenodd" clip-rule="evenodd" d="M9.58357 2.5C9.58357 1.80964 10.1432 1.25 10.8336 1.25C11.5239 1.25 12.0836 1.80964 12.0836 2.5V3.75C12.0836 4.44036 11.5239 5 10.8336 5C10.1432 5 9.58357 4.44036 9.58357 3.75V2.5ZM14.2177 4.89411C13.7295 5.38227 13.7295 6.17372 14.2177 6.66188C14.7058 7.15003 15.4973 7.15003 15.9854 6.66188L16.8693 5.778C17.3575 5.28984 17.3575 4.49838 16.8693 4.01023C16.3812 3.52207 15.5897 3.52207 15.1016 4.01023L14.2177 4.89411ZM10.8331 13.3346C8.9922 13.3346 7.49981 11.8423 7.49981 10.0013C7.49981 8.16035 8.9922 6.66797 10.8331 6.66797C12.6741 6.66797 14.1665 8.16035 14.1665 10.0013C14.1665 11.8423 12.6741 13.3346 10.8331 13.3346ZM15.8336 10C15.8336 9.30964 16.3932 8.75 17.0836 8.75H18.3336C19.0239 8.75 19.5836 9.30964 19.5836 10C19.5836 10.6904 19.0239 11.25 18.3336 11.25H17.0836C16.3932 11.25 15.8336 10.6904 15.8336 10ZM4.84268 4.01065C4.35452 4.4988 4.35452 5.29026 4.84268 5.77841L5.72656 6.6623C6.21472 7.15045 7.00617 7.15045 7.49433 6.6623C7.98248 6.17414 7.98248 5.38269 7.49433 4.89453L6.61045 4.01065C6.12229 3.52249 5.33083 3.52249 4.84268 4.01065Z" fill="#FAD515"/>
<path fill-rule="evenodd" clip-rule="evenodd" d="M11.5085 11.25C10.9534 9.09347 8.99581 7.5 6.66602 7.5C3.90459 7.5 1.66602 9.73858 1.66602 12.5C1.66602 14.2623 2.57777 15.8117 3.9553 16.7021C4.50846 17.1982 5.2395 17.5 6.04102 17.5H6.66602H13.541C15.2669 17.5 16.666 16.1009 16.666 14.375C16.666 12.6491 15.2669 11.25 13.541 11.25H11.5085Z" fill="#639AF0"/>
</svg>
