<svg width="20" height="20" viewBox="0 0 20 20" fill="none" xmlns="http://www.w3.org/2000/svg">
<path fill-rule="evenodd" clip-rule="evenodd" d="M12.3425 6.25C11.7874 4.09347 9.8298 2.5 7.5 2.5C4.73858 2.5 2.5 4.73858 2.5 7.5C2.5 9.26232 3.41175 10.8117 4.78929 11.7021C5.34244 12.1982 6.07348 12.5 6.875 12.5H7.5H14.375C16.1009 12.5 17.5 11.1009 17.5 9.375C17.5 7.64911 16.1009 6.25 14.375 6.25H12.3425Z" fill="#639AF0"/>
<path opacity="0.3" fill-rule="evenodd" clip-rule="evenodd" d="M5.41602 17.5013C6.10637 17.5013 6.66602 16.9417 6.66602 16.2513C6.66602 15.5609 5.41602 14.168 5.41602 14.168C5.41602 14.168 4.16602 15.5609 4.16602 16.2513C4.16602 16.9417 4.72566 17.5013 5.41602 17.5013ZM9.58268 17.5013C10.273 17.5013 10.8327 16.9417 10.8327 16.2513C10.8327 15.5609 9.58268 14.168 9.58268 14.168C9.58268 14.168 8.33268 15.5609 8.33268 16.2513C8.33268 16.9417 8.89233 17.5013 9.58268 17.5013ZM14.9993 16.2513C14.9993 16.9417 14.4397 17.5013 13.7493 17.5013C13.059 17.5013 12.4993 16.9417 12.4993 16.2513C12.4993 15.5609 13.7493 14.168 13.7493 14.168C13.7493 14.168 14.9993 15.5609 14.9993 16.2513Z" fill="#639AF0"/>
</svg>
