<svg width="20" height="20" viewBox="0 0 20 20" fill="none" xmlns="http://www.w3.org/2000/svg">
<path fill-rule="evenodd" clip-rule="evenodd" d="M12.3425 6.25C11.7874 4.09347 9.8298 2.5 7.5 2.5C4.73858 2.5 2.5 4.73858 2.5 7.5C2.5 9.26232 3.41175 10.8117 4.78929 11.7021C5.34244 12.1982 6.07348 12.5 6.875 12.5H7.5H14.375C16.1009 12.5 17.5 11.1009 17.5 9.375C17.5 7.64911 16.1009 6.25 14.375 6.25H12.3425Z" fill="#639AF0"/>
<path opacity="0.3" fill-rule="evenodd" clip-rule="evenodd" d="M13.0664 14.0241C13.1855 13.5796 13.6424 13.3157 14.087 13.4349C14.5315 13.554 14.7954 14.0109 14.6762 14.4555C14.5571 14.9 14.1002 15.1638 13.6556 15.0447C13.2111 14.9256 12.9472 14.4687 13.0664 14.0241ZM6.3997 14.0241C6.51881 13.5796 6.97576 13.3157 7.42032 13.4349C7.86487 13.554 8.12869 14.0109 8.00957 14.4555C7.89045 14.9 7.43351 15.1638 6.98895 15.0447C6.5444 14.9256 6.28058 14.4687 6.3997 14.0241ZM10.7536 13.4349C10.3091 13.3157 9.85215 13.5796 9.73303 14.0241C9.61391 14.4687 9.87773 14.9256 10.3223 15.0447C10.7668 15.1638 11.2238 14.9 11.3429 14.4555C11.462 14.0109 11.1982 13.554 10.7536 13.4349ZM11.3997 16.5241C11.5188 16.0796 11.9758 15.8157 12.4203 15.9349C12.8649 16.054 13.1287 16.5109 13.0096 16.9555C12.8905 17.4 12.4335 17.6638 11.989 17.5447C11.5444 17.4256 11.2806 16.9687 11.3997 16.5241ZM9.08698 15.9349C8.64243 15.8157 8.18548 16.0796 8.06636 16.5241C7.94724 16.9687 8.21106 17.4256 8.65562 17.5447C9.10017 17.6638 9.55712 17.4 9.67624 16.9555C9.79536 16.5109 9.53154 16.054 9.08698 15.9349Z" fill="#639AF0"/>
</svg>
