<svg width="20" height="20" viewBox="0 0 20 20" fill="none" xmlns="http://www.w3.org/2000/svg">
<path d="M2.5 10.8333V9.16667H14.5833C15.2737 9.16667 15.8333 8.60702 15.8333 7.91667V7.5C15.8333 7.03976 15.4602 6.66667 15 6.66667C14.5398 6.66667 14.1667 7.03976 14.1667 7.5V8.33333H12.5V7.5C12.5 6.11929 13.6193 5 15 5C16.3807 5 17.5 6.11929 17.5 7.5V7.91667C17.5 9.5275 16.1942 10.8333 14.5833 10.8333H2.5Z" fill="#639AF0"/>
<path opacity="0.3" fill-rule="evenodd" clip-rule="evenodd" d="M2.5 5.83464V7.5013H7.91667C9.5275 7.5013 10.8333 6.19547 10.8333 4.58464V4.16797C10.8333 2.78726 9.71405 1.66797 8.33333 1.66797C6.95262 1.66797 5.83333 2.78726 5.83333 4.16797V5.0013H7.5V4.16797C7.5 3.70773 7.8731 3.33464 8.33333 3.33464C8.79357 3.33464 9.16667 3.70773 9.16667 4.16797V4.58464C9.16667 5.27499 8.60702 5.83464 7.91667 5.83464H2.5ZM2.5 14.1693V12.5026H7.91667C9.5275 12.5026 10.8333 13.8084 10.8333 15.4193V15.8359C10.8333 17.2166 9.71405 18.3359 8.33333 18.3359C6.95262 18.3359 5.83333 17.2166 5.83333 15.8359V15.0026H7.5V15.8359C7.5 16.2962 7.8731 16.6693 8.33333 16.6693C8.79357 16.6693 9.16667 16.2962 9.16667 15.8359V15.4193C9.16667 14.7289 8.60702 14.1693 7.91667 14.1693H2.5Z" fill="#639AF0"/>
</svg>
