<svg width="20" height="20" viewBox="0 0 20 20" fill="none" xmlns="http://www.w3.org/2000/svg">
<path d="M10 12.5C8.61929 12.5 7.5 11.3807 7.5 10C7.5 8.61929 8.61929 7.5 10 7.5C11.3807 7.5 12.5 8.61929 12.5 10C12.5 11.3807 11.3807 12.5 10 12.5Z" fill="#FFCA0E"/>
<path opacity="0.7" fill-rule="evenodd" clip-rule="evenodd" d="M8.75 2.5C8.75 1.80964 9.30964 1.25 10 1.25C10.6904 1.25 11.25 1.80964 11.25 2.5V3.75C11.25 4.44036 10.6904 5 10 5C9.30964 5 8.75 4.44036 8.75 3.75V2.5ZM13.3839 4.88955C12.8957 5.37771 12.8957 6.16917 13.3839 6.65732C13.872 7.14548 14.6635 7.14548 15.1517 6.65732L16.0355 5.77344C16.5237 5.28528 16.5237 4.49383 16.0355 4.00567C15.5474 3.51752 14.7559 3.51752 14.2678 4.00567L13.3839 4.88955ZM16.25 8.75C15.5596 8.75 15 9.30964 15 10C15 10.6904 15.5596 11.25 16.25 11.25H17.5C18.1904 11.25 18.75 10.6904 18.75 10C18.75 9.30964 18.1904 8.75 17.5 8.75H16.25ZM13.3839 13.3896C12.8957 13.8777 12.8957 14.6692 13.3839 15.1573L14.2678 16.0412C14.7559 16.5294 15.5474 16.5294 16.0355 16.0412C16.5237 15.553 16.5237 14.7616 16.0355 14.2734L15.1517 13.3896C14.6635 12.9014 13.872 12.9014 13.3839 13.3896ZM2.5 8.75C1.80964 8.75 1.25 9.30964 1.25 10C1.25 10.6904 1.80964 11.25 2.5 11.25H3.75C4.44036 11.25 5 10.6904 5 10C5 9.30964 4.44036 8.75 3.75 8.75H2.5ZM10 15C9.30964 15 8.75 15.5596 8.75 16.25V17.5C8.75 18.1904 9.30964 18.75 10 18.75C10.6904 18.75 11.25 18.1904 11.25 17.5V16.25C11.25 15.5596 10.6904 15 10 15ZM4.00888 5.78232C3.52073 5.29417 3.52073 4.50271 4.00888 4.01455C4.49704 3.5264 5.2885 3.5264 5.77665 4.01455L6.66053 4.89844C7.14869 5.38659 7.14869 6.17805 6.66053 6.6662C6.17238 7.15436 5.38092 7.15436 4.89277 6.6662L4.00888 5.78232ZM4.00888 16.0323C3.52073 15.5442 3.52073 14.7527 4.00888 14.2646L4.89277 13.3807C5.38092 12.8925 6.17238 12.8925 6.66053 13.3807C7.14869 13.8688 7.14869 14.6603 6.66053 15.1484L5.77665 16.0323C5.2885 16.5205 4.49704 16.5205 4.00888 16.0323Z" fill="#FFCA0E"/>
</svg>
