<svg width="60" height="60" viewBox="0 0 60 60" fill="none" xmlns="http://www.w3.org/2000/svg">
<g clip-path="url(#clip0)">
<rect width="60" height="60" rx="13" fill="url(#paint0_linear)"/>
<g filter="url(#filter0_f)">
<circle cx="25.1552" cy="70.5552" r="11.3897" fill="#445CAE"/>
</g>
<g filter="url(#filter1_f)">
<circle cx="25.2336" cy="9.89056" r="16.5309" fill="#30AAEF"/>
</g>
<g filter="url(#filter2_f)">
<circle cx="50.1919" cy="52.1919" r="18.1919" fill="#0097C7" fill-opacity="0.77"/>
</g>
<g filter="url(#filter3_f)">
<circle cx="9.83626" cy="70.241" r="17.0845" fill="#1582E7" fill-opacity="0.49"/>
</g>
<g filter="url(#filter4_f)">
<circle cx="63.6735" cy="62.878" r="13.2089" fill="#004AA0" fill-opacity="0.85"/>
</g>
<path d="M17.6923 21.3845C15.6531 21.3845 14 19.7314 14 17.6923C14 15.6531 15.6531 14 17.6923 14C19.7315 14 21.3846 15.6531 21.3846 17.6923C21.3846 19.7314 19.7315 21.3845 17.6923 21.3845Z" fill="white"/>
<path d="M30.0021 33.69C27.9629 33.69 26.3098 32.0369 26.3098 29.9977C26.3098 27.9585 27.9629 26.3054 30.0021 26.3054C32.0413 26.3054 33.6944 27.9585 33.6944 29.9977C33.6944 32.0369 32.0413 33.69 30.0021 33.69Z" fill="white"/>
<path d="M17.6923 45.9996C15.6531 45.9996 14 44.3466 14 42.3074C14 40.2682 15.6531 38.6151 17.6923 38.6151C19.7315 38.6151 21.3846 40.2682 21.3846 42.3074C21.3846 44.3466 19.7315 45.9996 17.6923 45.9996Z" fill="white"/>
<path d="M38.6154 42.3074C38.6154 44.3466 40.2685 45.9996 42.3077 45.9996C44.3469 45.9996 46 44.3466 46 42.3074C46 40.2682 44.3469 38.6151 42.3077 38.6151C40.2685 38.6151 38.6154 40.2682 38.6154 42.3074Z" fill="white"/>
<path d="M30.0021 46C27.9629 46 26.3098 44.3469 26.3098 42.3077C26.3098 40.2686 27.9629 38.6155 30.0021 38.6155C32.0413 38.6155 33.6944 40.2686 33.6944 42.3077C33.6944 44.3469 32.0413 46 30.0021 46Z" fill="white"/>
<path d="M38.6154 29.9977C38.6154 32.0369 40.2685 33.69 42.3077 33.69C44.3469 33.69 46 32.0369 46 29.9977C46 27.9585 44.3469 26.3054 42.3077 26.3054C40.2685 26.3054 38.6154 27.9585 38.6154 29.9977Z" fill="white"/>
<path d="M26.3098 17.6923C26.3098 19.7314 27.9629 21.3845 30.0021 21.3845C32.0413 21.3845 33.6944 19.7314 33.6944 17.6923C33.6944 15.6531 32.0413 14 30.0021 14C27.9629 14 26.3098 15.6531 26.3098 17.6923Z" fill="white"/>
<path d="M42.3077 21.3845C40.2685 21.3845 38.6154 19.7314 38.6154 17.6923C38.6154 15.6531 40.2685 14 42.3077 14C44.3469 14 46 15.6531 46 17.6923C46 19.7314 44.3469 21.3845 42.3077 21.3845Z" fill="white"/>
</g>
<defs>
<filter id="filter0_f" x="-17.8726" y="27.5275" width="86.0555" height="86.0555" filterUnits="userSpaceOnUse" color-interpolation-filters="sRGB">
<feFlood flood-opacity="0" result="BackgroundImageFix"/>
<feBlend mode="normal" in="SourceGraphic" in2="BackgroundImageFix" result="shape"/>
<feGaussianBlur stdDeviation="15.819" result="effect1_foregroundBlur"/>
</filter>
<filter id="filter1_f" x="-22.9353" y="-38.2784" width="96.3379" height="96.3379" filterUnits="userSpaceOnUse" color-interpolation-filters="sRGB">
<feFlood flood-opacity="0" result="BackgroundImageFix"/>
<feBlend mode="normal" in="SourceGraphic" in2="BackgroundImageFix" result="shape"/>
<feGaussianBlur stdDeviation="15.819" result="effect1_foregroundBlur"/>
</filter>
<filter id="filter2_f" x="0.361944" y="2.36194" width="99.6599" height="99.6599" filterUnits="userSpaceOnUse" color-interpolation-filters="sRGB">
<feFlood flood-opacity="0" result="BackgroundImageFix"/>
<feBlend mode="normal" in="SourceGraphic" in2="BackgroundImageFix" result="shape"/>
<feGaussianBlur stdDeviation="15.819" result="effect1_foregroundBlur"/>
</filter>
<filter id="filter3_f" x="-38.8863" y="21.5184" width="97.4452" height="97.4452" filterUnits="userSpaceOnUse" color-interpolation-filters="sRGB">
<feFlood flood-opacity="0" result="BackgroundImageFix"/>
<feBlend mode="normal" in="SourceGraphic" in2="BackgroundImageFix" result="shape"/>
<feGaussianBlur stdDeviation="15.819" result="effect1_foregroundBlur"/>
</filter>
<filter id="filter4_f" x="18.8266" y="18.0311" width="89.6939" height="89.6939" filterUnits="userSpaceOnUse" color-interpolation-filters="sRGB">
<feFlood flood-opacity="0" result="BackgroundImageFix"/>
<feBlend mode="normal" in="SourceGraphic" in2="BackgroundImageFix" result="shape"/>
<feGaussianBlur stdDeviation="15.819" result="effect1_foregroundBlur"/>
</filter>
<linearGradient id="paint0_linear" x1="-26.131" y1="30" x2="72.381" y2="33.75" gradientUnits="userSpaceOnUse">
<stop stop-color="#00A3FF"/>
<stop offset="1" stop-color="#84CBF2"/>
</linearGradient>
<clipPath id="clip0">
<rect width="60" height="60" rx="13" fill="white"/>
</clipPath>
</defs>
</svg>
